<?xml version="1.0" encoding="utf-8"?>
<!-- Generator: Adobe Illustrator 19.2.1, SVG Export Plug-In . SVG Version: 6.00 Build 0)  -->
<svg version="1.1" id="Layer_1" xmlns="http://www.w3.org/2000/svg" xmlns:xlink="http://www.w3.org/1999/xlink" x="0px" y="0px"
	 viewBox="0 0 160.2 30" style="enable-background:new 0 0 160.2 30;" xml:space="preserve">
<style type="text/css">
	.st0{fill:#212121;}
</style>
<g>
	<g>
		<path class="st0" d="M6.8,11.5c0-0.4-0.2-0.6-0.6-0.6h-3c-0.4,0-0.6,0.2-0.6,0.6v7c0,0.4,0.2,0.6,0.6,0.6h3c0.4,0,0.6-0.2,0.6-0.6
			v-1.9H4.4v-2.3h5V19c0,1.5-1,2.6-2.6,2.6H2.6C1,21.6,0,20.5,0,19v-8c0-1.5,1-2.6,2.6-2.6h4.3c1.5,0,2.6,1,2.6,2.6v1.7H6.8V11.5z"
			/>
		<path class="st0" d="M20.1,21.5L18,16.7h-2.1v4.8h-2.6v-13h6.6c1.5,0,2.6,1,2.6,2.6v3c0,1.2-0.7,2.1-1.8,2.4l2.2,4.9h-2.8V21.5z
			 M19.9,11.6c0-0.4-0.2-0.6-0.6-0.6h-3.4v3.3h3.4c0.4,0,0.6-0.2,0.6-0.6V11.6z"/>
		<path class="st0" d="M34.9,8.5V11H29v2.7h4.8v2.4H29v3h5.9v2.4h-8.5v-13H34.9z"/>
		<path class="st0" d="M40.2,21.5h-2.7l4.2-13h3l4.2,13h-2.8l-0.8-2.9h-4.2L40.2,21.5z M41.8,16.1h2.8l-1.4-4.8L41.8,16.1z"/>
		<path class="st0" d="M55.9,10.9v10.6h-2.6V10.9h-3.4V8.5h9.4v2.4H55.9z"/>
	</g>
	<g>
		<path class="st0" d="M103.7,8.5V19h5.4v2.4h-8v-13h2.6V8.5z"/>
		<path class="st0" d="M114.1,21.5h-2.7l4.2-13h3l4.2,13H120l-0.8-2.9H115L114.1,21.5z M115.6,16.1h2.8l-1.4-4.8L115.6,16.1z"/>
		<path class="st0" d="M128.5,18.2v3.3h-2.6v-13h2.6v6.1l4.5-6.1h3l-4,5.1l4.2,7.9h-2.9l-3-5.6L128.5,18.2z"/>
		<path class="st0" d="M147.8,8.5V11h-5.9v2.7h4.8v2.4h-4.8v3h5.9v2.4h-8.5v-13H147.8z"/>
		<path class="st0" d="M157.4,11.5c0-0.4-0.2-0.6-0.6-0.6h-2.6c-0.4,0-0.6,0.2-0.6,0.6v1.2c0,0.4,0.2,0.5,0.6,0.6l3.3,0.7
			c1.4,0.3,2.6,1.2,2.6,2.6V19c0,1.5-1,2.6-2.6,2.6h-4c-1.5,0-2.6-1-2.6-2.6v-1.7h2.5v1.2c0,0.4,0.2,0.6,0.6,0.6h2.8
			c0.4,0,0.6-0.2,0.6-0.6v-1.4c0-0.4-0.2-0.5-0.6-0.6l-3.3-0.7c-1.4-0.3-2.6-1.2-2.6-2.6V11c0-1.5,1-2.6,2.6-2.6h3.8
			c1.5,0,2.6,1,2.6,2.6v1.5h-2.5V11.5z"/>
	</g>
	<g id="mitten_1_">
		<path class="st0" d="M68.3,30c0-0.4,0.1-0.7,0.3-1c0.9-1.1,1-2.4,1.2-3.7c0.3-1.7,0.1-3.3-0.7-4.8c-0.4-0.9-0.7-1.9-1.2-2.7
			c-0.3-0.4-0.3-0.8,0-1.2c0.5-0.6,0.4-1.3,0.1-1.9c-0.3-0.5-0.2-0.9,0.1-1.4c0.7-1.1,1.2-2.4,0.9-3.8c-0.1-0.4,0.1-0.8,0.3-0.9
			c0.6-0.2,0.5-0.6,0.5-1c0-0.3,0-0.6,0.4-0.3c0.1,0,0.2,0.1,0.2,0c-0.2-0.9,0.8-0.3,0.9-0.8c0.2-0.5,0.4-0.9,0.6-1.3
			c0,0,0-0.1,0.1-0.1c0.1,0,0.2-0.1,0.3-0.1c0.2,0,0.1,0.2,0.1,0.3c0,0.6,0,1.2-0.1,1.9c0,0.3-0.2,0.6,0.2,0.8
			c0.4,0.2,0.5-0.1,0.7-0.4c0.1-0.2,0.1-0.4,0.4-0.2c0.1,0.1,0.2,0,0.1-0.1c-0.4-0.7,0.2-1.5-0.2-2.3c-0.1-0.3-0.1-0.7,0.2-1
			c0.3-0.3,0.5,0.1,0.7,0.2c0.1,0,0.2,0,0.5,0c-0.4-0.2-0.7-0.3-0.7-0.6c0-0.2,0.2-0.3,0.4-0.3c0.3-0.1,0.6,0,0.9-0.2
			c0-0.3-0.2-0.2-0.3-0.3C74.5,2.4,74.4,1.5,75,1c0.3-0.2,0.2-0.7,0.7-0.8s1-0.3,1.5,0.1c0.2,0.2,0.5,0.3,0.7,0.3
			c1.1,0,1.8,0.7,2.7,1.2c0.8,0.5,1.8,0.9,2.9,1c0.6,0,0.6,0.7,0.8,1.1c0.3,0.4,0.5,0.8-0.1,1.2c-0.4,0.3-0.3,0.6,0,0.9
			c0.9,0.7,1.1,1.6,0.8,2.7c-0.1,0.3-0.1,0.6,0.1,0.9c0.3,0.5,0.1,1-0.3,1.2c-0.6,0.2-0.6,0.6-0.6,1c0,0.8-0.5,1.2-1.1,1.6
			c-0.7,0.3-0.9,1.1-0.8,2c0.1,0.8,0.8,0.9,1.4,0.9c0.5,0,0.7-0.7,1.1-1c0.2-0.1,0.2-0.4,0.3-0.6c0.3-1.2,1.4-1.7,2.3-2.2
			c0.5-0.3,1-0.1,1.3,0.3c0.4,0.5,0.9,1,0.9,1.6c0.2,1.3,0.8,2.4,1,3.7c0.1,0.7,0.4,1.3,0.8,1.9v0.8c-0.2,0.6,0,1.3-0.1,2
			c-0.1,0.4-0.1,1-0.8,0.5c-0.3-0.2-0.7-0.1-0.8,0.2c-0.1,0.5-0.5,0.9-0.4,1.4c0,0.3,0,0.6-0.3,0.7c-0.9,0.4-1.2,1.1-1.1,2.1
			c0,0.1-0.1,0.3-0.2,0.4c-0.1,0.8-1,1.2-1.1,2H68.3V30z"/>
	</g>
</g>
</svg>
