<?xml version="1.0" encoding="utf-8"?>
<!-- Generator: Adobe Illustrator 19.2.1, SVG Export Plug-In . SVG Version: 6.00 Build 0)  -->
<svg version="1.1" id="Layer_1" xmlns="http://www.w3.org/2000/svg" xmlns:xlink="http://www.w3.org/1999/xlink" x="0px" y="0px"
	 viewBox="0 0 30 28.6" style="enable-background:new 0 0 30 28.6;" xml:space="preserve">
<style type="text/css">
	.st0{fill:#222222;}
	.st1{fill:#424242;}
</style>
<g>
	<path class="st0" d="M-302.5,203.1c-0.2-2.2,0.5-4.2,1.7-5.8c5-6.4,5.7-14,7-21.6c1.7-9.8,0.3-19.1-3.8-27.8
		c-2.5-5.2-4.2-10.8-7.2-15.7c-1.5-2.4-1.6-4.7,0.3-6.9c3-3.6,2.6-7.4,0.5-11.1c-1.7-2.9-1.3-5,0.5-7.9c4.3-6.6,6.7-13.9,5.2-22
		c-0.4-2.2,0.5-4.7,1.8-5.1c3.3-1.2,2.9-3.5,2.9-6c0-1.7-0.1-3.8,2.5-1.7c0.4,0.3,1.1,0.5,1,0.2c-1.2-5.1,4.5-1.8,5.4-4.5
		c0.9-2.6,2.3-5.1,3.4-7.6c0.1-0.3,0.2-0.5,0.4-0.8c0.4-0.6,0.8-1.3,1.7-1.1c1,0.2,0.7,1.1,0.7,1.8c0.1,3.6-0.2,7.3-0.7,10.9
		c-0.3,1.7-1.1,3.7,1.1,4.7c2.3,1.1,3.1-0.8,4-2.3c0.5-0.9,0.9-2.4,2.6-1.1c0.5,0.3,1-0.1,0.7-0.8c-2.2-4.3,0.9-9-0.9-13.4
		c-0.8-1.9-0.5-4.2,1.3-5.7c1.9-1.6,2.8,0.7,4.2,1.1c0.7,0.2,1.4,0.1,3.2,0.2c-2.1-1.2-4-1.6-4.1-3.5c0-1.2,1.2-1.5,2.2-1.9
		c1.6-0.6,3.6,0.2,5.1-1c0.2-1.5-1-1.1-1.7-1.5c-3.9-2.3-4.7-7.7-1.2-10.6c1.8-1.4,1.4-4.2,4-4.9c2.9-0.7,5.7-2,8.4,0.6
		c1,1,2.6,1.9,3.9,1.8c6.5-0.2,10.5,4.1,15.6,7.1c4.8,2.8,10.7,5.2,16.8,5.7c3.3,0.3,3.4,4.1,4.9,6.3c1.7,2.5,3,4.7-0.3,7
		c-2.1,1.6-1.8,3.6,0.3,5.1c5.5,4.1,6.4,9.4,4.7,15.7c-0.5,1.6-0.6,3.3,0.6,5c2,2.8,0.4,5.9-1.8,6.8c-3.3,1.3-3.7,3.6-3.6,6
		c0.2,4.8-2.7,7.2-6.3,9.1c-3.8,2-5.4,6.2-4.5,11.7c0.7,4.7,4.8,5.3,7.9,5.4c3,0.1,4.2-3.9,6.5-5.9c0.9-0.8,1.4-2.3,1.8-3.5
		c1.9-7.1,8.1-9.7,13.6-12.9c2.7-1.5,5.6-0.4,7.6,1.8c2.5,2.7,5,5.8,5.4,9.5c0.9,7.5,4.7,14.2,5.6,21.8c0.5,3.9,2.2,7.6,4.5,10.9
		c0,1.5,0,2.9,0,4.4c-1.4,3.7-0.2,7.6-0.7,11.4c-0.3,2.6-0.5,5.5-4.4,2.8c-1.7-1.2-4.2-0.5-4.4,1.1c-0.4,2.9-3,5.1-2.5,8.2
		c0.3,1.7-0.2,3.6-1.7,4.3c-5.4,2.4-7.1,6.4-6.4,12c0.1,0.7-0.8,1.6-0.9,2.4c-0.4,4.8-5.9,7-6.3,11.8
		C-230.6,203.1-266.5,203.1-302.5,203.1z"/>
	<path class="st0" d="M-350.3-40.1c1.1,0.9,0.1,2.9-1.7,3.6c-9.9,3.8-14.8,12.3-19.1,21.1c-0.5,1.1-0.8,2.5,0.5,4.3
		c3.7-7.3,9.2-5.6,15.6-4.5c8.9,1.5,12.4,8.3,16.5,14.3c2.5,3.7,4.8,3.8,8,2.8c2.5-0.8,4.9-2.4,6.9,0.8c0.5,0.8,1.6,0.6,2.4,0.1
		c0.5-0.3,1.2-1.1,1.4-1c6.7,3.5,9.2-3.4,13-5.9c5.5-3.6,11-4.7,17-4.7c5.5-0.1,10.9-0.4,15.7-3.6c0.8-0.5,1.9-0.7,2.9-0.9
		c5.5-0.9,5.9-0.5,5.3,5c-0.7,6.8,2.8,9.5,9.2,7c1.7-0.7,3.2-1.7,4.7,0.1c1.4,1.6,2.9,0.7,3.8-0.4c1.9-2.2,4.6-2.6,7-3.5
		c2.2-0.8,4.4-0.3,3.2,3c-0.5,1.4-0.3,2.5,0.3,3.8C-236.2,4-236,6.6-239,9c5,0.6,5.5,5.6,9.2,7.4c1.5,0.7,0.1,2-1.3,2
		c-2.6,0.2-5.2,0.3-7.9,0.2c-1.5,0-2.9-0.5-3.8,1.2c-0.8,1.5-1.4,0.5-2.2-0.3c-1.9-1.9-4.5-2.4-6.7-1.6c-2.2,0.8-1.9,3.4-1.5,5.5
		c0.2,0.9,0.4,1.8-0.7,2.3c-0.9,0.4-1.8,0.1-2.5-0.5c-1.4-1.1-3-2-4.1-3.4c-4.2-5-10.2-4.5-15.8-5.4c-1.3-0.2-3.1-0.1-3.7,1.1
		c-2.3,4.6-7,4.6-10.9,5.4c-2.9,0.6-6.2-0.9-9.2,0.6c-1.2,0.6-3.1,0.9-3.2,2.1c-0.5,6-7.4,6.9-9.2,11.8c-0.3,0.8-1,1.6-2.1,0.9
		c-1-0.7-1.1-1.5-0.6-2.6c1.3-2.6,4-4.4,3.8-8.1c-3.1,2-7.5,1.6-8.6,6.3c-0.3,1.4-1.6,2.1-3.1,1.8c-1.7-0.4-1.7-1.9-1.7-3.2
		c0-1.3,0.3-2.6,0.2-4.1c-1.1,6.5-6.9,10.3-8.9,16.4c-2,6-4.8,11.7-8.6,16.8c-0.9,1.2-1.3,2.9-3.2,2.1c-1.8-0.8-2.7-2.4-2.4-4.3
		c0.2-1.3,1-2.4,1.4-3.7c0.5-2,0.8-3.6-2.4-2.7c-3,0.8-4-1-2.8-3.5c1.9-4-0.5-7.7-0.2-11.6c0.1-2-2.1-3-4.3-2.9
		c-3.6,0.1-5.6-1.2-5-5.2c0.5-3.5-1.5-4.8-4.8-4.5c-5.5,0.5-10.9-0.2-16.3-0.8c-4.4-0.5-7.7-3.5-11.7-4.9
		c-8.7-3.1-17.6-5.9-26.5-8.5c-2.5-0.7-4.4-1.6-3.8-4.8c0.4-2.6-1.1-4.1-3.6-4.8c-1.7-0.5-3.2-1.3-4.9-2c0-0.6,0-1.2,0-1.8
		c1.6-1.4,3.5-2.3,5.5-2.6c4.4-0.5,8.2-2.3,11.3-5.4c2.6-2.6,5.8-3.2,9.4-2.8c2.8,0.3,5.9,0.5,8.1-1.4c4.6-3.8,11.5-4.6,14.6-10.5
		c0.3-0.6,1.1-0.9,1.7-1.4c6.8-5,15.1-12.6,21.1-14C-354.9-41.5-351.3-41-350.3-40.1z"/>
</g>
<g>
	<path class="st1" d="M12.1,13.2c0.2,0.1,0,0.4-0.3,0.5c-1.5,0.6-2.2,1.8-2.8,3.1C9,17,8.9,17.2,9.1,17.5c0.5-1.1,1.4-0.8,2.3-0.7
		c1.3,0.2,1.8,1.2,2.4,2.1c0.4,0.5,0.7,0.6,1.2,0.4c0.4-0.1,0.7-0.4,1,0.1c0.1,0.1,0.2,0.1,0.4,0c0.1,0,0.2-0.2,0.2-0.1
		c1,0.5,1.4-0.5,1.9-0.9c0.8-0.5,1.6-0.7,2.5-0.7c0.8,0,1.6-0.1,2.3-0.5c0.1-0.1,0.3-0.1,0.4-0.1c0.8-0.1,0.9-0.1,0.8,0.7
		c-0.1,1,0.4,1.4,1.4,1c0.2-0.1,0.5-0.2,0.7,0c0.2,0.2,0.4,0.1,0.6-0.1c0.3-0.3,0.7-0.4,1-0.5c0.3-0.1,0.7,0,0.5,0.4
		c-0.1,0.2,0,0.4,0,0.6c0.2,0.4,0.2,0.8-0.2,1.1c0.7,0.1,0.8,0.8,1.4,1.1c0.2,0.1,0,0.3-0.2,0.3c-0.4,0-0.8,0-1.2,0
		c-0.2,0-0.4-0.1-0.6,0.2c-0.1,0.2-0.2,0.1-0.3,0c-0.3-0.3-0.7-0.4-1-0.2c-0.3,0.1-0.3,0.5-0.2,0.8c0,0.1,0.1,0.3-0.1,0.3
		c-0.1,0.1-0.3,0-0.4-0.1c-0.2-0.2-0.4-0.3-0.6-0.5c-0.6-0.7-1.5-0.7-2.3-0.8c-0.2,0-0.5,0-0.5,0.2c-0.3,0.7-1,0.7-1.6,0.8
		c-0.4,0.1-0.9-0.1-1.4,0.1c-0.2,0.1-0.5,0.1-0.5,0.3c-0.1,0.9-1.1,1-1.4,1.7c0,0.1-0.1,0.2-0.3,0.1c-0.1-0.1-0.2-0.2-0.1-0.4
		c0.2-0.4,0.6-0.6,0.6-1.2c-0.5,0.3-1.1,0.2-1.3,0.9c0,0.2-0.2,0.3-0.5,0.3c-0.3-0.1-0.3-0.3-0.2-0.5c0-0.2,0-0.4,0-0.6
		c-0.2,1-1,1.5-1.3,2.4c-0.3,0.9-0.7,1.7-1.3,2.5c-0.1,0.2-0.2,0.4-0.5,0.3c-0.3-0.1-0.4-0.3-0.4-0.6c0-0.2,0.1-0.4,0.2-0.5
		c0.1-0.3,0.1-0.5-0.4-0.4c-0.4,0.1-0.6-0.2-0.4-0.5c0.3-0.6-0.1-1.1,0-1.7c0-0.3-0.3-0.4-0.6-0.4c-0.5,0-0.8-0.2-0.7-0.8
		c0.1-0.5-0.2-0.7-0.7-0.7c-0.8,0.1-1.6,0-2.4-0.1c-0.6-0.1-1.1-0.5-1.7-0.7c-1.3-0.5-2.6-0.9-3.9-1.2c-0.4-0.1-0.6-0.2-0.6-0.7
		c0.1-0.4-0.2-0.6-0.5-0.7c-0.2-0.1-0.5-0.2-0.7-0.3c0-0.1,0-0.2,0-0.3c0.2-0.2,0.5-0.3,0.8-0.4c0.7-0.1,1.2-0.3,1.7-0.8
		c0.4-0.4,0.9-0.5,1.4-0.4c0.4,0,0.9,0.1,1.2-0.2c0.7-0.6,1.7-0.7,2.1-1.6c0-0.1,0.2-0.1,0.3-0.2c1-0.7,2.2-1.9,3.1-2.1
		C11.4,13,12,13.1,12.1,13.2z"/>
	<g>
		<path class="st1" d="M10.2,2.4c0-0.3-0.2-0.5-0.5-0.5H7.5C7.1,1.9,7,2.1,7,2.4v5.4c0,0.3,0.2,0.5,0.5,0.5h2.3
			c0.3,0,0.5-0.2,0.5-0.5V6.3H8.4V4.5h3.9v3.7c0,1.2-0.8,2-2,2H6.9c-1.2,0-2-0.8-2-2V2c0-1.2,0.8-2,2-2h3.3c1.2,0,2,0.8,2,2v1.3h-2
			V2.4z"/>
	</g>
	<g>
		<path class="st1" d="M17.2,4.5v8.2h4.2v1.9h-6.2V4.5H17.2z"/>
	</g>
</g>
</svg>
